<?xml version="1.0" encoding="utf-8"?>
<!-- Generator: Adobe Illustrator 27.9.0, SVG Export Plug-In . SVG Version: 6.00 Build 0)  -->
<svg version="1.1" id="Capa_1" xmlns="http://www.w3.org/2000/svg" xmlns:xlink="http://www.w3.org/1999/xlink" x="0px" y="0px"
	 viewBox="0 0 800 800" style="enable-background:new 0 0 800 800;" xml:space="preserve">
<style type="text/css">
	.st0{fill:#232663;}
</style>
<g>
	<g>
		<path class="st0" d="M360.3,447c16.2-10.1,30.8-22.4,43.5-36.5l45.7,26.4l41.6-72.1l-45.6-26.3c5.8-17.7,9.2-36.5,9.9-56l51.9-9.2
			l-14.5-82l-51.9,9.2c-7.2-17.8-16.8-34.3-28.5-49.2l33.9-40.4l-63.8-53.5l-33.9,40.4c-16.6-8.9-34.5-15.5-53.4-19.5V25.6H212v52.7
			c-18.9,4-36.8,10.6-53.4,19.5l-33.9-40.4l-63.8,53.5l33.9,40.4c-11.7,14.9-21.3,31.4-28.5,49.2l-51.9-9.2L0,273.3l51.9,9.2
			c0.6,19.5,4.1,38.3,9.9,56l-45.6,26.3l41.6,72.1l45.7-26.4c12.7,14.1,27.3,26.4,43.5,36.5l-18.1,49.6l78.3,28.5l18-49.5
			c9.3,1.3,18.8,2,28.4,2c9.6,0,19.1-0.7,28.4-2l18,49.5l78.2-28.5L360.3,447z M253.6,382.1c-58.6,0-106.3-47.7-106.3-106.3
			c0-58.6,47.7-106.3,106.3-106.3S360,217.1,360,275.8C360,334.4,312.3,382.1,253.6,382.1z"/>
		<path class="st0" d="M718.2,509.6l-35.9,11.6c-6.8-11.9-15.3-22.7-25-32l20.1-32l-50.5-31.6l-20,32c-12.6-4.7-26-7.6-39.8-8.5
			l-5.2-37.4l-59,8.2l5.2,37.4c-13,4.7-25.1,11.2-35.9,19.1l-28-25.3L404,495.2l28,25.3c-6.8,11.7-12,24.4-15.3,37.7l-37.7-1.4
			l-2.2,59.6l37.7,1.4c2.4,13.7,6.7,26.7,12.5,38.7l-29.8,23.2l36.6,47l29.8-23.2c10.4,8.8,22,16,34.4,21.6l-7.9,36.9l58.3,12.5
			l7.9-36.9c6.7,0,13.5-0.4,20.3-1.4c6.8-1,13.5-2.4,20-4.2l17.7,33.3l52.7-27.9L649.5,704c10.5-8.8,19.6-18.9,27.2-30.2l35,14.2
			l22.4-55.2l-35-14.2c2.4-13.1,2.9-26.8,1.5-40.7l35.9-11.6L718.2,509.6z M567.5,668.5c-41.6,5.8-80.1-23.3-85.9-64.9
			c-5.8-41.6,23.3-80.1,64.9-85.9c41.6-5.8,80.1,23.3,85.9,64.9C638.2,624.1,609,662.7,567.5,668.5z"/>
		<path class="st0" d="M798.6,303l1.4-47l-29.8-0.9c-1.9-10.4-5.2-20.6-10.1-30.5l23.4-18.5l-29.2-36.9L731,187.6
			c-8.3-6.9-17.6-12.6-27.3-16.8l6-29.2l-46.1-9.5l-6.1,29.2c-10.6,0-21.3,1.5-31.8,4.6l-14.1-26.2L570.2,162l14.1,26.2
			c-8.3,7-15.5,15.2-21.3,24l-27.7-11l-17.4,43.7l27.7,11c-1.8,10.5-2.2,21.3-1,32.1l-28.3,9.4l14.8,44.7l28.3-9.4
			c5.5,9.5,12.3,17.9,19.9,25.2l-15.6,25.3l40,24.7l15.7-25.4c10.1,3.6,20.7,5.8,31.4,6.5l4.3,29.5l46.6-6.8l-4.3-29.5
			c5-1.8,9.9-4,14.7-6.6c4.8-2.6,9.3-5.5,13.6-8.6l22.2,19.8l31.3-35.1l-22.3-19.8c5.3-9.4,9.3-19.4,11.8-29.8L798.6,303z
			 M686.5,328.2c-29.2,15.7-65.7,4.8-81.4-24.4c-15.7-29.2-4.8-65.7,24.4-81.4c29.2-15.7,65.7-4.8,81.4,24.4
			C726.6,276,715.6,312.5,686.5,328.2z"/>
	</g>
</g>
</svg>
