<?xml version="1.0" encoding="utf-8"?>
<!-- Generator: Adobe Illustrator 27.9.0, SVG Export Plug-In . SVG Version: 6.00 Build 0)  -->
<svg version="1.1" id="Layer_1" xmlns="http://www.w3.org/2000/svg" xmlns:xlink="http://www.w3.org/1999/xlink" x="0px" y="0px"
	 viewBox="0 0 800 800" style="enable-background:new 0 0 800 800;" xml:space="preserve">
<style type="text/css">
	.st0{fill:#232663;}
</style>
<g id="XMLID_1400_">
	<g>
		<g>
			<path class="st0" d="M762,247.2L724.5,49.6c-1.9-9.8-10.4-16.8-20.3-16.8h-380c-9.9,0-18.5,7.1-20.3,16.8L272,217.7h42.1
				l27.2-143.6h210.8c-2.4,5.3-3.7,11.1-3.7,17.2c0,23.1,18.7,41.8,41.8,41.8c23.1,0,41.8-18.7,41.8-41.8c0-6.1-1.3-12-3.7-17.2
				h58.8l29.7,156.4c-5.4-0.5-6.4-0.3-24.8-0.3l-0.2-36.3c-0.1-26.2-21.5-47.4-47.7-47.4c-11.2,0-96.9,0-108.2,0
				c-26.2,0-47.5,21.3-47.7,47.4l-0.1,25.3c8.4,1.9,16.1,5.7,22.7,11c10,8.1,17.2,19.5,19.7,32.9l35.1,185.2c2,1.8,3.8,3.6,5.6,5.5
				h78.5v43.5c0,27.6,22.4,50,50,50c27.6,0,50-22.4,50-50v-43.5h16.2c18.8,0,34.1-15.2,34.1-34.1v-98.6
				C800,290.7,785,263.7,762,247.2z M701.2,396c-26,0-47.2-21.1-47.2-47.2c0-0.1,0-0.2,0-0.3c0.2-25.9,21.2-46.8,47.2-46.8
				c26,0,47.2,21.1,47.2,47.2C748.3,374.7,727.4,396,701.2,396z"/>
			<path class="st0" d="M533.6,467.2c-1.3-6.9-36-189.6-37.5-197.6c-1.9-9.8-10.4-16.8-20.3-16.8h-380c-9.9,0-18.5,7.1-20.3,16.8
				L38,467.2c-24.5,17.6-38,45.5-38,73.9v98.6c0,18.8,15.2,34.1,34.1,34.1h16.2c0,18.1,0,25.7,0,43.5c0,27.6,22.4,50,50,50
				s50-22.4,50-50c0-17.8,0-25.4,0-43.5h271.2c0,18.1,0,25.7,0,43.5c0,27.6,22.4,50,50,50s50-22.4,50-50c0-17.8,0-25.4,0-43.5h16.2
				c18.8,0,34.1-15.2,34.1-34.1v-98.6C571.6,511.9,557.5,484.4,533.6,467.2z M98.8,616c-26.2,0-47.2-21.3-47.2-47.2
				c0-26,21.1-47.2,47.2-47.2c25.9,0,47,20.9,47.2,46.8c0,0.1,0,0.2,0,0.3C146,594.9,124.9,616,98.8,616z M415.7,366.4
				c-11.2,0-96.9,0-108.2,0c-26.2,0-47.5,21.3-47.7,47.4l-0.2,36.3c-183.6,0-170.5-0.2-176.5,0.3l29.7-156.4h210.8
				c-2.4,5.3-3.7,11.1-3.7,17.2c0,23.1,18.7,41.8,41.8,41.8c23.1,0,41.8-18.7,41.8-41.8c0-6.1-1.3-12-3.7-17.2h58.8l29.7,156.4
				c-5.3-0.4-6.4-0.3-24.8-0.3l-0.2-36.3C463.3,387.7,441.9,366.4,415.7,366.4z M472.8,616c-26,0-47.2-21.1-47.2-47.2
				c0-0.1,0-0.2,0-0.3c0.2-25.9,21.2-46.8,47.2-46.8c26,0,47.2,21.1,47.2,47.2C519.9,594.7,499,616,472.8,616z"/>
		</g>
	</g>
</g>
</svg>
