<?xml version="1.0" encoding="utf-8"?>
<!-- Generator: Adobe Illustrator 27.9.0, SVG Export Plug-In . SVG Version: 6.00 Build 0)  -->
<svg version="1.1" id="Layer_1" xmlns="http://www.w3.org/2000/svg" xmlns:xlink="http://www.w3.org/1999/xlink" x="0px" y="0px"
	 viewBox="0 0 17 17" style="enable-background:new 0 0 17 17;" xml:space="preserve">
<style type="text/css">
	.st0{fill:#FFFFFF;}
</style>
<path class="st0" d="M13.6,1.4H3.5C2.9,1.4,2.4,1.6,2,2C1.7,2.4,1.4,2.9,1.4,3.4v10.2c0,0.5,0.2,1.1,0.6,1.4
	c0.4,0.4,0.9,0.6,1.4,0.6h4.6v-5.2H6.3v-2h1.8V6.9c0-0.9,0.3-1.5,0.7-1.9c0.4-0.4,1.1-0.7,1.9-0.7c0.8,0,1.3,0,1.6,0.1v1.8h-1.1
	c-0.4,0-0.6,0.1-0.8,0.3c-0.2,0.2-0.2,0.4-0.2,0.7v1.3h2l-0.4,2h-1.8v5.1h3.5c0.5,0,1.1-0.2,1.4-0.6c0.4-0.4,0.6-0.9,0.6-1.4V3.4
	c0-0.5-0.2-1.1-0.6-1.4C14.6,1.6,14.2,1.4,13.6,1.4z"/>
</svg>
